<svg width="44" height="34" viewBox="0 0 44 34" fill="none" xmlns="http://www.w3.org/2000/svg">
<path d="M41.2406 19.7484V25.2457H2.7594V19.7484C2.7594 12.8768 6.96828 7.03587 12.981 4.5449L16.5027 11.5024V1.88214C16.5027 1.19498 17.104 0.507812 17.877 0.507812H26.123C26.8102 0.507812 27.4973 1.19498 27.4973 1.88214V11.5024L30.9331 4.5449C36.9458 7.03587 41.2406 12.8768 41.2406 19.7484ZM42.6149 27.9944C43.3021 27.9944 43.9893 28.6816 43.9893 29.3687V32.1174C43.9893 32.8904 43.3021 33.4917 42.6149 33.4917H1.38507C0.612011 33.4917 0.0107422 32.8904 0.0107422 32.1174V29.3687C0.0107422 28.6816 0.612011 27.9944 1.38507 27.9944H42.6149Z" fill="#3498DB"/>
</svg>
