<svg width="56" height="44" viewBox="0 0 56 44" fill="none" xmlns="http://www.w3.org/2000/svg">
<path d="M12.8367 18.9605L11.7196 22.9994C11.4618 23.9447 11.4618 24.9759 11.5477 25.9211L8.54002 28.4132C7.93849 28.8429 7.07915 28.4132 7.25101 27.6398L8.62596 21.1088C8.71189 20.5932 8.36816 20.1636 7.93849 20.1636L1.23563 19.4761C0.462228 19.3901 0.204426 18.4449 0.891898 18.1011L6.47761 14.32C6.82134 14.0622 6.90728 13.5466 6.64948 13.2029L2.35278 8.04686C1.92311 7.44532 2.35278 6.58598 3.12618 6.75785L9.65717 8.13279C10.1728 8.21873 10.6024 7.87499 10.6024 7.44532L11.2899 0.74247C11.3758 -0.0309362 12.3211 -0.288738 12.6649 0.398734L16.446 5.98444C16.7038 6.32818 17.2194 6.41411 17.5631 6.15631L22.7191 1.85961C23.3207 1.42994 24.18 1.85961 24.0081 2.63302L23.0629 7.44532C22.8051 7.70312 22.5473 7.96093 22.3754 8.21873L19.6255 11.9139L18.6802 13.2029C15.8444 13.8904 13.6101 16.1247 12.8367 18.9605ZM55.2881 30.3897L54.2569 34.3427C53.9991 35.3739 53.4835 36.2332 52.7101 36.9207C52.5382 37.0926 52.2804 37.2644 52.0226 37.5222L50.8196 41.9908C50.6477 42.3345 50.5618 42.6783 50.3039 42.9361C49.6165 43.7954 48.4993 44.2251 47.3822 43.8813L44.8042 43.1939C43.2574 42.8501 42.398 41.3033 42.8277 39.8424L43.5152 37.1785L22.2895 31.5068L21.602 34.1708C21.1723 35.6317 19.6255 36.491 18.1646 36.0613L15.5007 35.3739C14.4695 35.1161 13.6961 34.1708 13.5242 33.1396C13.5242 32.7099 13.5242 32.3662 13.6101 32.0224L14.8132 27.5539C14.6413 27.2101 14.5554 26.9523 14.4695 26.6086C14.2117 25.6633 14.1257 24.7181 14.3835 23.6868L15.5007 19.7339C15.9303 18.0152 17.1334 16.7262 18.6802 16.0387C19.1099 15.8669 19.7114 15.695 20.227 15.695L21.7739 13.5466L24.5237 9.85147C24.8675 9.50774 25.2112 9.164 25.555 8.82027C26.2424 8.13279 27.0158 7.53126 27.7892 7.10159C28.2189 6.92972 28.6486 6.67192 29.0783 6.58598C30.0235 6.24225 30.9688 6.07038 31.9141 6.07038C32.8593 5.98444 33.8046 6.07038 34.7499 6.32818L45.3198 9.164C46.2651 9.4218 47.1244 9.85147 47.9837 10.3671C49.1868 11.0546 50.1321 12.0858 50.9055 13.2888C51.6789 14.4919 52.1945 15.8669 52.3664 17.3277L52.882 21.8822L53.2257 24.4603C54.085 25.1477 54.7725 26.0071 55.2022 27.0383C55.5459 28.0695 55.6319 29.2726 55.2881 30.3897ZM22.4613 20.1636C20.9145 19.7339 19.5396 20.5073 19.1099 22.0541C18.6802 23.6868 19.4536 24.9759 21.0864 25.4055C22.6332 25.8352 24.9534 26.7805 25.3831 25.1477C25.8128 23.6009 24.0941 20.5932 22.4613 20.1636ZM47.4681 22.5697L46.8666 18.0152C46.8666 17.5855 46.6947 17.1559 46.6088 16.8121C46.0932 15.695 45.062 14.8356 43.8589 14.4919L33.289 11.6561C32.9453 11.5702 32.6015 11.5702 32.2578 11.5702C30.8829 11.5702 29.6798 12.1717 28.9923 13.2029L26.1565 16.8981L40.9371 20.851L47.4681 22.5697ZM49.0149 27.2961C47.4681 26.8664 44.3745 28.5851 43.9448 30.1319C43.5152 31.7646 46.0072 32.1084 47.64 32.5381C49.1868 32.9677 50.5617 32.1943 50.9914 30.6475C51.4211 29.0148 50.6477 27.7257 49.0149 27.2961Z" fill="#3498DB"/>
</svg>
