<svg width="34" height="44" viewBox="0 0 34 44" fill="none" xmlns="http://www.w3.org/2000/svg">
<path d="M19.7487 11.6925C19.7487 12.8951 20.6076 13.754 21.8102 13.754H33.492V41.9278C33.492 43.1303 32.5471 43.9893 31.4305 43.9893H2.56955C1.36701 43.9893 0.508057 43.1303 0.508057 41.9278V2.07224C0.508057 0.955593 1.36701 0.0107422 2.56955 0.0107422H19.7487V11.6925ZM25.246 31.9639V31.2767C25.246 30.7614 24.7306 30.246 24.2152 30.246H9.78478C9.18351 30.246 8.75403 30.7614 8.75403 31.2767V31.9639C8.75403 32.5652 9.18351 32.9946 9.78478 32.9946H24.2152C24.7306 32.9946 25.246 32.5652 25.246 31.9639ZM25.246 26.4666V25.7794C25.246 25.264 24.7306 24.7487 24.2152 24.7487H9.78478C9.18351 24.7487 8.75403 25.264 8.75403 25.7794V26.4666C8.75403 27.0678 9.18351 27.4973 9.78478 27.4973H24.2152C24.7306 27.4973 25.246 27.0678 25.246 26.4666ZM25.246 20.2821C25.246 19.7667 24.7306 19.2513 24.2152 19.2513H9.78478C9.18351 19.2513 8.75403 19.7667 8.75403 20.2821V20.9693C8.75403 21.5705 9.18351 22 9.78478 22H24.2152C24.7306 22 25.246 21.5705 25.246 20.9693V20.2821ZM33.492 10.49V11.0054H22.4973V0.0107422H23.0127C23.5281 0.0107422 24.0434 0.268429 24.4729 0.612011L32.8907 9.02978C33.2343 9.45925 33.492 9.97463 33.492 10.49Z" fill="#3498DB"/>
</svg>
