<svg width="44" height="44" viewBox="0 0 44 44" fill="none" xmlns="http://www.w3.org/2000/svg">
<path d="M43.3558 17.1362C44.2147 17.9092 44.2147 19.1977 43.3558 20.0566L32.7047 30.7077C31.9317 31.5666 30.5573 31.5666 29.7843 30.7077L27.8087 28.818C27.0356 27.959 27.0356 26.6706 27.8087 25.8975L28.3241 25.3821L24.9741 21.9463L17.9307 28.9039L18.4461 29.4192C19.5627 30.5359 19.5627 32.2538 18.4461 33.2845L8.56808 43.1625C7.53733 44.2792 5.81942 44.2792 4.70278 43.1625L0.837482 39.2972C-0.279161 38.1806 -0.279161 36.4627 0.837482 35.4319L10.7155 25.5539C11.7462 24.4373 13.4641 24.4373 14.5808 25.5539L15.0961 26.0693L22.0537 19.0259L18.6179 15.6759L18.1025 16.1913C17.3294 16.9644 16.041 16.9644 15.182 16.1913L13.2923 14.2157C12.4334 13.4427 12.4334 12.0683 13.2923 11.2953L23.9434 0.644217C24.8023 -0.214739 26.0908 -0.214739 26.8638 0.644217L28.8394 2.53392C29.6125 3.39287 29.6125 4.68131 28.8394 5.45437L28.3241 5.96974L38.0303 15.6759L38.5456 15.1606C39.3187 14.3875 40.6071 14.3875 41.4661 15.1606L43.3558 17.1362Z" fill="#3498DB"/>
</svg>
