<svg width="40" height="44" viewBox="0 0 40 44" fill="none" xmlns="http://www.w3.org/2000/svg">
<path d="M20 22C13.9014 22 9.00537 17.104 9.00537 11.0054C9.00537 4.99269 13.9014 0.0107422 20 0.0107422C26.0127 0.0107422 30.9946 4.99269 30.9946 11.0054C30.9946 17.104 26.0127 22 20 22ZM9.69254 36.4305C9.69254 35.3138 10.5515 34.369 11.754 34.369C12.8707 34.369 13.8155 35.3138 13.8155 36.4305C13.8155 37.633 12.8707 38.492 11.754 38.492C10.5515 38.492 9.69254 37.633 9.69254 36.4305ZM28.246 24.8346C34.3446 25.1781 39.2406 30.1601 39.2406 36.3446V40.2099C39.2406 42.2714 37.4368 43.9893 35.3753 43.9893H4.5388C2.47731 43.9893 0.759399 42.2714 0.759399 40.2099V36.3446C0.759399 30.5896 4.88239 25.8653 10.3797 25.0063V31.878C8.4041 32.4793 6.94388 34.2831 6.94388 36.5164C6.94388 39.0932 9.09127 41.3265 11.754 41.3265C14.4168 41.3265 16.5642 39.0932 16.5642 36.5164C16.5642 34.2831 15.104 32.4793 13.1284 31.878V24.9205C13.7296 25.0064 14.4168 25.0922 15.0181 25.3499C16.5642 25.8653 18.2821 26.2089 20 26.2089C21.7179 26.2089 23.3499 25.8653 24.8961 25.3499C25.0678 25.264 25.2396 25.264 25.4973 25.1781V29.0434C22.3192 29.7306 20 32.4793 20 35.7433V39.5227C20 40.2099 20.5154 40.8111 21.1166 40.897L23.8653 41.2406C24.2089 41.3265 24.5525 41.0688 24.6384 40.7252L24.8961 39.3509C24.9819 39.0073 24.7243 38.6637 24.3807 38.5778L22.7487 38.2343V35.9151C22.7487 30.1601 30.9946 30.4178 30.9946 35.7433V38.2343L29.2767 38.5778C28.9331 38.6637 28.6755 39.0073 28.7614 39.3509L29.019 40.7252C29.1049 41.0688 29.4485 41.3265 29.7921 41.2406L32.6266 40.7252C33.2279 40.5534 33.7433 40.0381 33.7433 39.3509V35.7433C33.7433 32.4793 31.3382 29.6447 28.246 29.0434V24.8346Z" fill="#3498DB"/>
</svg>
