<svg width="56" height="44" viewBox="0 0 56 44" fill="none" xmlns="http://www.w3.org/2000/svg">
<path d="M22.5032 28.8717C22.5032 32.737 17.5213 35.7433 11.5086 35.7433C5.41001 35.7433 0.513959 32.737 0.513959 28.8717C0.513959 27.5832 0.256272 28.2704 7.81508 13.3246C9.27531 10.3182 13.656 10.3182 15.1162 13.3246C22.5891 28.1845 22.4173 27.4973 22.4173 28.8717H22.5032ZM11.5086 15.1284L5.32411 27.4973H17.6931L11.5086 15.1284ZM55.4012 28.8717H55.4871C55.4871 32.737 50.5052 35.7433 44.4925 35.7433C38.3939 35.7433 33.4979 32.737 33.4979 28.8717C33.4979 27.5832 33.2402 28.2704 40.799 13.3246C42.2592 10.3182 46.6399 10.3182 48.1001 13.3246C55.573 28.1845 55.4012 27.4973 55.4012 28.8717ZM38.308 27.4973H50.677L44.4925 15.1284L38.308 27.4973ZM45.8668 38.492C46.554 38.492 47.2411 39.1791 47.2411 39.8663V42.6149C47.2411 43.388 46.554 43.9893 45.8668 43.9893H10.1343C9.3612 43.9893 8.75993 43.388 8.75993 42.6149V39.8663C8.75993 39.1791 9.3612 38.492 10.1343 38.492H25.2519V13.2387C23.1904 12.2938 21.6443 10.49 21.2148 8.25672H10.1343C9.3612 8.25672 8.75993 7.65545 8.75993 6.88239V4.13373C8.75993 3.44656 9.3612 2.7594 10.1343 2.7594H22.5032C23.7058 1.12738 25.6814 0.0107422 28.0005 0.0107422C30.2338 0.0107422 32.2094 1.12738 33.412 2.7594H45.8668C46.554 2.7594 47.2411 3.44656 47.2411 4.13373V6.88239C47.2411 7.65545 46.554 8.25672 45.8668 8.25672H34.7004C34.2709 10.49 32.7248 12.2938 30.7492 13.2387V38.492H45.8668Z" fill="#3498DB"/>
</svg>
